<svg xmlns="http://www.w3.org/2000/svg" xmlns:xlink="http://www.w3.org/1999/xlink" width="400" zoomAndPan="magnify" viewBox="0 0 300 60.75" height="81" preserveAspectRatio="xMidYMid meet" version="1.0"><defs><g/><clipPath id="f6cf624c96"><path d="M 0.613281 0 L 61.117188 0 L 61.117188 60.5 L 0.613281 60.5 Z M 0.613281 0 " clip-rule="nonzero"/></clipPath></defs><g fill="#ffffff" fill-opacity="1"><g transform="translate(77.633094, 41.353361)"><g><path d="M 22.046875 -2.515625 L 19.65625 -2.515625 L 33.796875 -24.59375 L 38.859375 -24.59375 L 38.859375 0 L 33.796875 0 L 33.796875 -17.875 L 35.015625 -17.53125 L 23.71875 0 L 18.0625 0 L 6.765625 -17.453125 L 7.984375 -17.796875 L 7.984375 0 L 2.921875 0 L 2.921875 -24.59375 L 7.984375 -24.59375 Z M 22.046875 -2.515625 "/></g></g></g><g fill="#ffffff" fill-opacity="1"><g transform="translate(119.403881, 41.353361)"><g><path d="M 13.421875 0.453125 C 11.035156 0.453125 8.9375 0.0703125 7.125 -0.6875 C 5.3125 -1.445312 3.898438 -2.554688 2.890625 -4.015625 C 1.878906 -5.472656 1.375 -7.265625 1.375 -9.390625 C 1.375 -11.515625 1.878906 -13.316406 2.890625 -14.796875 C 3.898438 -16.285156 5.3125 -17.410156 7.125 -18.171875 C 8.9375 -18.929688 11.035156 -19.3125 13.421875 -19.3125 C 15.804688 -19.3125 17.890625 -18.929688 19.671875 -18.171875 C 21.460938 -17.410156 22.863281 -16.285156 23.875 -14.796875 C 24.882812 -13.316406 25.390625 -11.515625 25.390625 -9.390625 C 25.390625 -7.265625 24.882812 -5.472656 23.875 -4.015625 C 22.863281 -2.554688 21.460938 -1.445312 19.671875 -0.6875 C 17.890625 0.0703125 15.804688 0.453125 13.421875 0.453125 Z M 13.421875 -3.34375 C 14.734375 -3.34375 15.914062 -3.578125 16.96875 -4.046875 C 18.019531 -4.515625 18.847656 -5.195312 19.453125 -6.09375 C 20.066406 -7 20.375 -8.097656 20.375 -9.390625 C 20.375 -10.679688 20.066406 -11.789062 19.453125 -12.71875 C 18.847656 -13.644531 18.023438 -14.347656 16.984375 -14.828125 C 15.953125 -15.304688 14.765625 -15.546875 13.421875 -15.546875 C 12.097656 -15.546875 10.90625 -15.304688 9.84375 -14.828125 C 8.78125 -14.347656 7.9375 -13.648438 7.3125 -12.734375 C 6.695312 -11.816406 6.390625 -10.703125 6.390625 -9.390625 C 6.390625 -8.097656 6.691406 -7 7.296875 -6.09375 C 7.910156 -5.195312 8.75 -4.515625 9.8125 -4.046875 C 10.875 -3.578125 12.078125 -3.34375 13.421875 -3.34375 Z M 13.421875 -3.34375 "/></g></g></g><g fill="#ffffff" fill-opacity="1"><g transform="translate(146.16151, 41.353361)"><g><path d="M 0.953125 -18.890625 L 15.625 -18.890625 L 15.625 -15.046875 L 0.953125 -15.046875 Z M 5.8125 -24.0625 L 10.765625 -24.0625 L 10.765625 0 L 5.8125 0 Z M 5.8125 -24.0625 "/></g></g></g><g fill="#ffffff" fill-opacity="1"><g transform="translate(162.656976, 41.353361)"><g><path d="M 13.421875 0.453125 C 11.035156 0.453125 8.9375 0.0703125 7.125 -0.6875 C 5.3125 -1.445312 3.898438 -2.554688 2.890625 -4.015625 C 1.878906 -5.472656 1.375 -7.265625 1.375 -9.390625 C 1.375 -11.515625 1.878906 -13.316406 2.890625 -14.796875 C 3.898438 -16.285156 5.3125 -17.410156 7.125 -18.171875 C 8.9375 -18.929688 11.035156 -19.3125 13.421875 -19.3125 C 15.804688 -19.3125 17.890625 -18.929688 19.671875 -18.171875 C 21.460938 -17.410156 22.863281 -16.285156 23.875 -14.796875 C 24.882812 -13.316406 25.390625 -11.515625 25.390625 -9.390625 C 25.390625 -7.265625 24.882812 -5.472656 23.875 -4.015625 C 22.863281 -2.554688 21.460938 -1.445312 19.671875 -0.6875 C 17.890625 0.0703125 15.804688 0.453125 13.421875 0.453125 Z M 13.421875 -3.34375 C 14.734375 -3.34375 15.914062 -3.578125 16.96875 -4.046875 C 18.019531 -4.515625 18.847656 -5.195312 19.453125 -6.09375 C 20.066406 -7 20.375 -8.097656 20.375 -9.390625 C 20.375 -10.679688 20.066406 -11.789062 19.453125 -12.71875 C 18.847656 -13.644531 18.023438 -14.347656 16.984375 -14.828125 C 15.953125 -15.304688 14.765625 -15.546875 13.421875 -15.546875 C 12.097656 -15.546875 10.90625 -15.304688 9.84375 -14.828125 C 8.78125 -14.347656 7.9375 -13.648438 7.3125 -12.734375 C 6.695312 -11.816406 6.390625 -10.703125 6.390625 -9.390625 C 6.390625 -8.097656 6.691406 -7 7.296875 -6.09375 C 7.910156 -5.195312 8.75 -4.515625 9.8125 -4.046875 C 10.875 -3.578125 12.078125 -3.34375 13.421875 -3.34375 Z M 13.421875 -3.34375 "/></g></g></g><g fill="#ffffff" fill-opacity="1"><g transform="translate(189.414604, 41.353361)"><g><path d="M 2.28125 -18.890625 L 7.21875 -18.890625 L 7.21875 0 L 2.28125 0 Z M 14.484375 -14.828125 C 13.066406 -14.828125 11.835938 -14.550781 10.796875 -14 C 9.753906 -13.457031 8.914062 -12.789062 8.28125 -12 C 7.65625 -11.21875 7.210938 -10.460938 6.953125 -9.734375 L 6.921875 -11.828125 C 6.941406 -12.128906 7.039062 -12.578125 7.21875 -13.171875 C 7.394531 -13.765625 7.660156 -14.410156 8.015625 -15.109375 C 8.367188 -15.804688 8.835938 -16.476562 9.421875 -17.125 C 10.003906 -17.769531 10.710938 -18.296875 11.546875 -18.703125 C 12.390625 -19.109375 13.367188 -19.3125 14.484375 -19.3125 Z M 14.484375 -14.828125 "/></g></g></g><g fill="#ffffff" fill-opacity="1"><g transform="translate(204.655815, 41.353361)"><g><path d="M 17 -24.59375 C 19.757812 -24.59375 22.0625 -24.265625 23.90625 -23.609375 C 25.757812 -22.953125 27.238281 -22.054688 28.34375 -20.921875 C 29.445312 -19.796875 30.234375 -18.5 30.703125 -17.03125 C 31.171875 -15.5625 31.40625 -14.015625 31.40625 -12.390625 C 31.40625 -10.765625 31.144531 -9.203125 30.625 -7.703125 C 30.101562 -6.210938 29.273438 -4.890625 28.140625 -3.734375 C 27.015625 -2.585938 25.535156 -1.675781 23.703125 -1 C 21.867188 -0.332031 19.632812 0 17 0 L 2.921875 0 L 2.921875 -24.59375 Z M 7.984375 -4.328125 L 16.875 -4.328125 C 18.695312 -4.328125 20.210938 -4.550781 21.421875 -5 C 22.628906 -5.445312 23.585938 -6.046875 24.296875 -6.796875 C 25.003906 -7.554688 25.507812 -8.414062 25.8125 -9.375 C 26.113281 -10.34375 26.265625 -11.347656 26.265625 -12.390625 C 26.265625 -13.429688 26.113281 -14.421875 25.8125 -15.359375 C 25.507812 -16.296875 25.003906 -17.128906 24.296875 -17.859375 C 23.585938 -18.597656 22.628906 -19.179688 21.421875 -19.609375 C 20.210938 -20.046875 18.695312 -20.265625 16.875 -20.265625 L 7.984375 -20.265625 Z M 7.984375 -4.328125 "/></g></g></g><g fill="#ffffff" fill-opacity="1"><g transform="translate(238.064837, 41.353361)"><g><path d="M 19.5 -6.265625 L 24.296875 -6.265625 C 24.085938 -4.972656 23.546875 -3.820312 22.671875 -2.8125 C 21.796875 -1.800781 20.609375 -1.003906 19.109375 -0.421875 C 17.617188 0.160156 15.796875 0.453125 13.640625 0.453125 C 11.234375 0.453125 9.101562 0.0664062 7.25 -0.703125 C 5.40625 -1.472656 3.960938 -2.59375 2.921875 -4.0625 C 1.890625 -5.53125 1.375 -7.304688 1.375 -9.390625 C 1.375 -11.460938 1.878906 -13.238281 2.890625 -14.71875 C 3.898438 -16.207031 5.3125 -17.34375 7.125 -18.125 C 8.9375 -18.914062 11.0625 -19.3125 13.5 -19.3125 C 15.976562 -19.3125 18.039062 -18.914062 19.6875 -18.125 C 21.332031 -17.34375 22.554688 -16.160156 23.359375 -14.578125 C 24.160156 -12.992188 24.5 -10.972656 24.375 -8.515625 L 6.34375 -8.515625 C 6.46875 -7.554688 6.828125 -6.679688 7.421875 -5.890625 C 8.023438 -5.109375 8.835938 -4.488281 9.859375 -4.03125 C 10.890625 -3.570312 12.113281 -3.34375 13.53125 -3.34375 C 15.101562 -3.34375 16.414062 -3.613281 17.46875 -4.15625 C 18.519531 -4.707031 19.195312 -5.410156 19.5 -6.265625 Z M 13.265625 -15.546875 C 11.441406 -15.546875 9.957031 -15.144531 8.8125 -14.34375 C 7.675781 -13.550781 6.941406 -12.570312 6.609375 -11.40625 L 19.46875 -11.40625 C 19.34375 -12.675781 18.738281 -13.679688 17.65625 -14.421875 C 16.582031 -15.171875 15.117188 -15.546875 13.265625 -15.546875 Z M 13.265625 -15.546875 "/></g></g></g><g fill="#ffffff" fill-opacity="1"><g transform="translate(263.834261, 41.353361)"><g><path d="M 11.484375 0.421875 C 9.609375 0.421875 7.898438 0.0078125 6.359375 -0.8125 C 4.828125 -1.632812 3.613281 -2.785156 2.71875 -4.265625 C 1.820312 -5.753906 1.375 -7.472656 1.375 -9.421875 C 1.375 -11.429688 1.828125 -13.171875 2.734375 -14.640625 C 3.648438 -16.109375 4.882812 -17.253906 6.4375 -18.078125 C 8 -18.898438 9.769531 -19.3125 11.75 -19.3125 C 13.925781 -19.3125 15.675781 -18.875 17 -18 C 18.332031 -17.125 19.300781 -15.9375 19.90625 -14.4375 C 20.519531 -12.945312 20.828125 -11.273438 20.828125 -9.421875 C 20.828125 -8.304688 20.648438 -7.171875 20.296875 -6.015625 C 19.941406 -4.867188 19.394531 -3.804688 18.65625 -2.828125 C 17.925781 -1.859375 16.960938 -1.070312 15.765625 -0.46875 C 14.578125 0.125 13.148438 0.421875 11.484375 0.421875 Z M 13.078125 -3.390625 C 14.566406 -3.390625 15.859375 -3.640625 16.953125 -4.140625 C 18.046875 -4.648438 18.882812 -5.359375 19.46875 -6.265625 C 20.050781 -7.179688 20.34375 -8.234375 20.34375 -9.421875 C 20.34375 -10.710938 20.039062 -11.804688 19.4375 -12.703125 C 18.84375 -13.609375 18.003906 -14.296875 16.921875 -14.765625 C 15.847656 -15.234375 14.566406 -15.46875 13.078125 -15.46875 C 10.972656 -15.46875 9.335938 -14.914062 8.171875 -13.8125 C 7.003906 -12.71875 6.421875 -11.253906 6.421875 -9.421875 C 6.421875 -8.210938 6.695312 -7.15625 7.25 -6.25 C 7.8125 -5.351562 8.59375 -4.648438 9.59375 -4.140625 C 10.59375 -3.640625 11.753906 -3.390625 13.078125 -3.390625 Z M 20.34375 -18.890625 L 25.28125 -18.890625 L 25.28125 0 L 20.6875 0 C 20.6875 0 20.648438 -0.242188 20.578125 -0.734375 C 20.515625 -1.234375 20.457031 -1.863281 20.40625 -2.625 C 20.363281 -3.382812 20.34375 -4.128906 20.34375 -4.859375 Z M 20.34375 -18.890625 "/></g></g></g><g fill="#ffffff" fill-opacity="1"><g transform="translate(291.314042, 41.353361)"><g><path d="M 2.65625 -26.5 L 7.609375 -26.5 L 7.609375 0 L 2.65625 0 Z M 2.65625 -26.5 "/></g></g></g><g clip-path="url(#f6cf624c96)"><path fill="#31b56b" d="M 61.117188 30.25 C 61.117188 46.957031 47.570312 60.5 30.867188 60.5 C 14.160156 60.5 0.613281 46.957031 0.613281 30.25 C 0.613281 13.542969 14.160156 0 30.867188 0 C 47.570312 0 61.117188 13.542969 61.117188 30.25 Z M 61.117188 30.25 " fill-opacity="1" fill-rule="nonzero"/></g><path fill="#ffffff" d="M 18.691406 16.945312 C 19.523438 15.382812 21.152344 14.40625 22.925781 14.40625 L 38.804688 14.40625 C 40.578125 14.40625 42.207031 15.382812 43.039062 16.945312 L 47.078125 24.515625 C 47.238281 24.8125 47.226562 25.171875 47.054688 25.460938 C 46.878906 25.753906 46.566406 25.929688 46.230469 25.929688 L 15.5 25.929688 C 15.164062 25.929688 14.851562 25.753906 14.675781 25.460938 C 14.503906 25.171875 14.492188 24.8125 14.652344 24.515625 Z M 22.925781 16.324219 C 21.863281 16.324219 20.886719 16.914062 20.382812 17.851562 L 17.101562 24.007812 L 44.628906 24.007812 L 41.347656 17.851562 C 40.84375 16.914062 39.867188 16.324219 38.804688 16.324219 Z M 22.925781 16.324219 " fill-opacity="1" fill-rule="evenodd"/><path fill="#ffffff" d="M 13.578125 38.414062 C 13.050781 38.414062 12.617188 38.84375 12.617188 39.375 L 12.617188 41.292969 C 12.617188 43.945312 14.769531 46.097656 17.421875 46.097656 C 20.074219 46.097656 22.222656 43.945312 22.222656 41.292969 L 22.222656 39.375 C 22.222656 38.84375 21.792969 38.414062 21.261719 38.414062 Z M 13.578125 38.414062 " fill-opacity="1" fill-rule="evenodd"/><path fill="#ffffff" d="M 40.46875 38.414062 C 39.9375 38.414062 39.507812 38.84375 39.507812 39.375 L 39.507812 41.292969 C 39.507812 43.945312 41.65625 46.097656 44.308594 46.097656 C 46.960938 46.097656 49.113281 43.945312 49.113281 41.292969 L 49.113281 39.375 C 49.113281 38.84375 48.679688 38.414062 48.152344 38.414062 Z M 40.46875 38.414062 " fill-opacity="1" fill-rule="evenodd"/><path fill="#ffffff" d="M 15.5 24.007812 C 12.847656 24.007812 10.699219 26.15625 10.699219 28.808594 L 10.699219 35.53125 C 10.699219 38.183594 12.847656 40.335938 15.5 40.335938 L 46.230469 40.335938 C 48.882812 40.335938 51.03125 38.183594 51.03125 35.53125 L 51.03125 28.808594 C 51.03125 26.15625 48.882812 24.007812 46.230469 24.007812 Z M 41.429688 28.808594 C 39.835938 28.808594 38.546875 30.101562 38.546875 31.691406 C 38.546875 33.28125 39.835938 34.570312 41.429688 34.570312 L 45.269531 34.570312 C 46.863281 34.570312 48.152344 33.28125 48.152344 31.691406 C 48.152344 30.101562 46.863281 28.808594 45.269531 28.808594 Z M 13.578125 31.691406 C 13.578125 30.101562 14.867188 28.808594 16.460938 28.808594 L 20.300781 28.808594 C 21.894531 28.808594 23.183594 30.101562 23.183594 31.691406 C 23.183594 33.28125 21.894531 34.570312 20.300781 34.570312 L 16.460938 34.570312 C 14.867188 34.570312 13.578125 33.28125 13.578125 31.691406 Z M 24.144531 30.730469 C 24.144531 30.199219 24.574219 29.769531 25.101562 29.769531 L 36.628906 29.769531 C 37.15625 29.769531 37.585938 30.199219 37.585938 30.730469 C 37.585938 31.261719 37.15625 31.691406 36.628906 31.691406 L 25.101562 31.691406 C 24.574219 31.691406 24.144531 31.261719 24.144531 30.730469 Z M 27.023438 32.652344 C 26.492188 32.652344 26.0625 33.082031 26.0625 33.613281 C 26.0625 34.140625 26.492188 34.570312 27.023438 34.570312 L 34.707031 34.570312 C 35.238281 34.570312 35.667969 34.140625 35.667969 33.613281 C 35.667969 33.082031 35.238281 32.652344 34.707031 32.652344 Z M 27.023438 32.652344 " fill-opacity="1" fill-rule="evenodd"/></svg>